HIERARCHY
ROOT reference
{
  OFFSET 0 0 0
  CHANNELS 6 Xposition Yposition Zposition Zrotation Xrotation Yrotation
  JOINT Hips
  {
    OFFSET 347.352 87.9396 215.108
    CHANNELS 3 Zrotation Xrotation Yrotation
    JOINT RightUpLeg
    {
      OFFSET -9.26448 -1.5905 0.0349838
      CHANNELS 3 Zrotation Xrotation Yrotation
      JOINT RightLeg
      {
        OFFSET 0.0309074 -41.8937 0.0182011
        CHANNELS 3 Zrotation Xrotation Yrotation
        JOINT RightFoot
        {
          OFFSET 0.355296 -42.3801 0.810868
          CHANNELS 3 Zrotation Xrotation Yrotation
          End Site
          {
            OFFSET 0 -7.69 17.5
          }
        }
      }
    }
    JOINT LeftUpLeg
    {
      OFFSET 9.27369 -1.59127 -0.0547904
      CHANNELS 3 Zrotation Xrotation Yrotation
      JOINT LeftLeg
      {
        OFFSET 0.0553589 -41.8938 0.0587288
        CHANNELS 3 Zrotation Xrotation Yrotation
        JOINT LeftFoot
        {
          OFFSET 0.217916 -41.5497 -0.688939
          CHANNELS 3 Zrotation Xrotation Yrotation
          End Site
          {
            OFFSET 0 -7.69 17.5
          }
        }
      }
    }
    JOINT Spine
    {
      OFFSET 0.0383554 14.2988 0.0402393
      CHANNELS 3 Zrotation Xrotation Yrotation
      JOINT Spine1
      {
        OFFSET 0.0188251 9.70742 0.0136471
        CHANNELS 3 Zrotation Xrotation Yrotation
        JOINT Spine2
        {
          OFFSET 0.0421292 10.115 0.0126686
          CHANNELS 3 Zrotation Xrotation Yrotation
          JOINT Spine3
          {
            OFFSET 0.0499826 9.71803 0.0151296
            CHANNELS 3 Zrotation Xrotation Yrotation
            JOINT Neck
            {
              OFFSET 0.04654 10.3867 0.0448026
              CHANNELS 3 Zrotation Xrotation Yrotation
              JOINT Head
              {
                OFFSET 0.0370611 9.47282 0.0189897
                CHANNELS 3 Zrotation Xrotation Yrotation
                End Site
                {
                  OFFSET 0 15.95 0
                }
              }
            }
            JOINT RightShoulder
            {
              OFFSET -3.19309 6.93146 -0.00624137
              CHANNELS 3 Zrotation Xrotation Yrotation
              JOINT RightArm
              {
                OFFSET -12.7764 0.00688168 -0.00548706
                CHANNELS 3 Zrotation Xrotation Yrotation
                JOINT RightForeArm
                {
                  OFFSET -26.5073 -0.0244096 0.0677859
                  CHANNELS 3 Zrotation Xrotation Yrotation
                  JOINT RightHand
                  {
                    OFFSET -26.0056 -0.000416843 0.0508974
                    CHANNELS 3 Zrotation Xrotation Yrotation
                    JOINT RightHandThumb1
                    {
                      OFFSET -2.48905 0.190105 3.12053
                      CHANNELS 3 Zrotation Xrotation Yrotation
                      JOINT RightHandThumb2
                      {
                        OFFSET -3.68274 0 0
                        CHANNELS 3 Zrotation Xrotation Yrotation
                        JOINT RightHandThumb3
                        {
                          OFFSET -2.55832 0 0
                          CHANNELS 3 Zrotation Xrotation Yrotation
                          End Site
                          {
                            OFFSET -2.194 0 0
                          }
                        }
                      }
                    }
                    JOINT RightInHandIndex
                    {
                      OFFSET -3.22368 0.508421 1.97842
                      CHANNELS 3 Zrotation Xrotation Yrotation
                      JOINT RightHandIndex1
                      {
                        OFFSET -5.21684 -0.091368 0.999158
                        CHANNELS 3 Zrotation Xrotation Yrotation
                        JOINT RightHandIndex2
                        {
                          OFFSET -3.61937 0 0
                          CHANNELS 3 Zrotation Xrotation Yrotation
                          JOINT RightHandIndex3
                          {
                            OFFSET -2.0521 0 0
                            CHANNELS 3 Zrotation Xrotation Yrotation
                            End Site
                            {
                              OFFSET -1.805 0 0
                            }
                          }
                        }
                      }
                    }
                    JOINT RightInHandMiddle
                    {
                      OFFSET -3.38211 0.517263 0.756737
                      CHANNELS 3 Zrotation Xrotation Yrotation
                      JOINT RightHandMiddle1
                      {
                        OFFSET -5.17411 -0.084 0.313895
                        CHANNELS 3 Zrotation Xrotation Yrotation
                        JOINT RightHandMiddle2
                        {
                          OFFSET -3.94947 0 0
                          CHANNELS 3 Zrotation Xrotation Yrotation
                          JOINT RightHandMiddle3
                          {
                            OFFSET -2.47579 0 0
                            CHANNELS 3 Zrotation Xrotation Yrotation
                            End Site
                            {
                              OFFSET -1.975 0 0
                            }
                          }
                        }
                      }
                    }
                    JOINT RightInHandRing
                    {
                      OFFSET -3.36516 0.537895 -0.128947
                      CHANNELS 3 Zrotation Xrotation Yrotation
                      JOINT RightHandRing1
                      {
                        OFFSET -4.63474 -0.022105 -0.478947
                        CHANNELS 3 Zrotation Xrotation Yrotation
                        JOINT RightHandRing2
                        {
                          OFFSET -3.44238 0 0
                          CHANNELS 3 Zrotation Xrotation Yrotation
                          JOINT RightHandRing3
                          {
                            OFFSET -2.3881 0 0
                            CHANNELS 3 Zrotation Xrotation Yrotation
                            End Site
                            {
                              OFFSET -1.857 0 0
                            }
                          }
                        }
                      }
                    }
                    JOINT RightInHandPinky
                    {
                      OFFSET -3.16105 0.469368 -1.20179
                      CHANNELS 3 Zrotation Xrotation Yrotation
                      JOINT RightHandPinky1
                      {
                        OFFSET -4.14105 -0.022105 -1.09053
                        CHANNELS 3 Zrotation Xrotation Yrotation
                        JOINT RightHandPinky2
                        {
                          OFFSET -2.75653 0 0
                          CHANNELS 3 Zrotation Xrotation Yrotation
                          JOINT RightHandPinky3
                          {
                            OFFSET -1.74189 0 0
                            CHANNELS 3 Zrotation Xrotation Yrotation
                            End Site
                            {
                              OFFSET -1.645 0 0
                            }
                          }
                        }
                      }
                    }
                  }
                }
              }
            }
            JOINT LeftShoulder
            {
              OFFSET 3.25131 6.94393 -0.0111894
              CHANNELS 3 Zrotation Xrotation Yrotation
              JOINT LeftArm
              {
                OFFSET 12.7762 -0.0164608 -0.057961
                CHANNELS 3 Zrotation Xrotation Yrotation
                JOINT LeftForeArm
                {
                  OFFSET 26.494 -0.0292415 -0.00751187
                  CHANNELS 3 Zrotation Xrotation Yrotation
                  JOINT LeftHand
                  {
                    OFFSET 26.0005 -0.052199 0.00178648
                    CHANNELS 3 Zrotation Xrotation Yrotation
                    JOINT LeftHandThumb1
                    {
                      OFFSET 2.48905 0.190105 3.12053
                      CHANNELS 3 Zrotation Xrotation Yrotation
                      JOINT LeftHandThumb2
                      {
                        OFFSET 3.68274 0 0
                        CHANNELS 3 Zrotation Xrotation Yrotation
                        JOINT LeftHandThumb3
                        {
                          OFFSET 2.55832 0 0
                          CHANNELS 3 Zrotation Xrotation Yrotation
                          End Site
                          {
                            OFFSET 2.194 0 0
                          }
                        }
                      }
                    }
                    JOINT LeftInHandIndex
                    {
                      OFFSET 3.22368 0.508421 1.97842
                      CHANNELS 3 Zrotation Xrotation Yrotation
                      JOINT LeftHandIndex1
                      {
                        OFFSET 5.21684 -0.091368 0.999158
                        CHANNELS 3 Zrotation Xrotation Yrotation
                        JOINT LeftHandIndex2
                        {
                          OFFSET 3.61937 0 0
                          CHANNELS 3 Zrotation Xrotation Yrotation
                          JOINT LeftHandIndex3
                          {
                            OFFSET 2.0521 0 0
                            CHANNELS 3 Zrotation Xrotation Yrotation
                            End Site
                            {
                              OFFSET 1.805 0 0
                            }
                          }
                        }
                      }
                    }
                    JOINT LeftInHandMiddle
                    {
                      OFFSET 3.38211 0.517263 0.756737
                      CHANNELS 3 Zrotation Xrotation Yrotation
                      JOINT LeftHandMiddle1
                      {
                        OFFSET 5.17411 -0.084 0.313895
                        CHANNELS 3 Zrotation Xrotation Yrotation
                        JOINT LeftHandMiddle2
                        {
                          OFFSET 3.94947 0 0
                          CHANNELS 3 Zrotation Xrotation Yrotation
                          JOINT LeftHandMiddle3
                          {
                            OFFSET 2.47579 0 0
                            CHANNELS 3 Zrotation Xrotation Yrotation
                            End Site
                            {
                              OFFSET 1.975 0 0
                            }
                          }
                        }
                      }
                    }
                    JOINT LeftInHandRing
                    {
                      OFFSET 3.36516 0.537895 -0.128947
                      CHANNELS 3 Zrotation Xrotation Yrotation
                      JOINT LeftHandRing1
                      {
                        OFFSET 4.63474 -0.022105 -0.478947
                        CHANNELS 3 Zrotation Xrotation Yrotation
                        JOINT LeftHandRing2
                        {
                          OFFSET 3.44238 0 0
                          CHANNELS 3 Zrotation Xrotation Yrotation
                          JOINT LeftHandRing3
                          {
                            OFFSET 2.3881 0 0
                            CHANNELS 3 Zrotation Xrotation Yrotation
                            End Site
                            {
                              OFFSET 1.857 0 0
                            }
                          }
                        }
                      }
                    }
                    JOINT LeftInHandPinky
                    {
                      OFFSET 3.16105 0.469368 -1.20179
                      CHANNELS 3 Zrotation Xrotation Yrotation
                      JOINT LeftHandPinky1
                      {
                        OFFSET 4.14105 -0.022105 -1.09053
                        CHANNELS 3 Zrotation Xrotation Yrotation
                        JOINT LeftHandPinky2
                        {
                          OFFSET 2.75653 0 0
                          CHANNELS 3 Zrotation Xrotation Yrotation
                          JOINT LeftHandPinky3
                          {
                            OFFSET 1.74189 0 0
                            CHANNELS 3 Zrotation Xrotation Yrotation
                            End Site
                            {
                              OFFSET 1.645 0 0
                            }
                          }
                        }
                      }
                    }
                  }
                }
              }
            }
          }
        }
      }
    }
  }
}
MOTION
Frames: 2
Frame Time: 0.00833333
7.500000000000000000e+02 0.000000000000000000e+00 0.000000000000000000e+00 0.000000000000000000e+00 0.000000000000000000e+00 0.000000000000000000e+00 5.912887229826071511e-01 2.315502348644694619e-01 -4.776387772039669244e+00 3.913750139877508083e+00 2.310777106215394561e+00 5.148032827565837133e-01 -8.235360059750402861e-01 1.084582928122257872e+00 1.313459897528276743e+00 3.736540733818424220e-01 -4.862018523528812253e+00 1.272242297158149071e+00 5.228457734205786966e-01 1.936542828497406887e+00 -4.314544910328852900e+00 -2.593960491963821280e+00 -3.481087871929902655e-01 3.871127301762406603e+00 1.918309945702002084e+00 -8.118525752408938256e-01 4.425302248312965148e+00 1.295890313971941044e-01 -1.231820193312893830e+00 -4.811264465117963240e+00 2.025636115971014839e-02 -4.528747190258344824e-01 -1.187114914772922747e+00 3.245487920218052130e-02 -7.898128757956865975e-01 -1.799861141969826717e+00 3.763525051370819607e-02 -1.952549478087926491e-02 4.646637804400108873e-01 -3.706254592680522375e-01 -2.826300754663730874e-01 5.250839785746387101e+00 4.973466048776138404e-01 2.124442870902897365e-02 5.868924112042009256e+00 1.646136796002158065e-02 -6.241316086792445539e-01 -2.521968058984497940e+00 -6.665058043404687105e+00 -8.402330832485320755e+00 -1.444115744380499278e+00 -1.748851827216250499e+01 2.491808614319134030e+00 -9.902673715045521519e+00 -8.813388895130215284e-01 -2.216179680331010537e+00 1.770369728484145311e+00 0.000000000000000000e+00 0.000000000000000000e+00 0.000000000000000000e+00 -8.290190333237353275e-15 -2.076407923536281784e-16 0.000000000000000000e+00 -5.380820909060674498e-15 -1.367405654880989743e-15 0.000000000000000000e+00 1.232693227833326204e-15 -2.875866630877436322e-15 -2.762118759408866125e-15 0.000000000000000000e+00 0.000000000000000000e+00 0.000000000000000000e+00 0.000000000000000000e+00 3.571977237737463125e-15 3.813178588108887049e-15 0.000000000000000000e+00 5.297049358822155013e-16 9.906021465764296289e-16 1.232693227833326204e-15 -2.875866630877436322e-15 -2.762118759408866125e-15 0.000000000000000000e+00 -9.844313648005121197e-16 4.342013517437199062e-15 0.000000000000000000e+00 -4.845494322606634061e-16 7.398518871938507713e-15 0.000000000000000000e+00 2.034181369517496385e-15 2.966933722581106333e-15 1.232693227833326204e-15 -2.875866630877436322e-15 -2.762118759408866125e-15 0.000000000000000000e+00 0.000000000000000000e+00 0.000000000000000000e+00 0.000000000000000000e+00 2.462893367722525293e-15 3.536481661736936745e-15 0.000000000000000000e+00 8.937997512529681820e-16 6.265407643507069506e-15 1.232693227833326204e-15 -2.875866630877436322e-15 -2.762118759408866125e-15 0.000000000000000000e+00 0.000000000000000000e+00 0.000000000000000000e+00 0.000000000000000000e+00 2.163817752521988843e-16 6.913457709887545263e-15 0.000000000000000000e+00 1.841970253612139837e-15 7.906614329248703187e-15 -7.453227449687480632e-01 -1.271329616032714327e+00 -3.209249990453150847e+00 6.325957747327515257e+00 -1.764649363492083234e+00 -7.786043668847984378e+00 1.040336775543048908e+01 -5.054793499471745832e+00 4.446359523494236576e+00 -3.154257527514038095e+00 2.039793183108985275e+00 -2.695245197243924196e+00 0.000000000000000000e+00 0.000000000000000000e+00 0.000000000000000000e+00 -4.149693875520230871e-16 -2.094940677684932321e-16 0.000000000000000000e+00 -1.359843638785328702e-15 -6.495950309158249638e-16 0.000000000000000000e+00 -8.974103476143787756e-16 -1.845966228280076728e-15 -8.506865708384049699e-16 0.000000000000000000e+00 0.000000000000000000e+00 0.000000000000000000e+00 0.000000000000000000e+00 2.223250325138971187e-15 -4.268854076031232888e-15 0.000000000000000000e+00 1.491527674635740346e-15 -5.153311638740697767e-15 -8.974103476143787756e-16 -1.845966228280076728e-15 -8.506865708384049699e-16 0.000000000000000000e+00 -4.979232833609556072e-16 -6.376555342154461640e-15 0.000000000000000000e+00 9.920373311865863619e-16 -5.251916723022217786e-15 0.000000000000000000e+00 1.498404471722087927e-15 -7.825845361332892515e-15 -8.974103476143787756e-16 -1.845966228280076728e-15 -8.506865708384049699e-16 0.000000000000000000e+00 0.000000000000000000e+00 0.000000000000000000e+00 0.000000000000000000e+00 1.292182503200900911e-15 -5.716592247729806283e-15 0.000000000000000000e+00 6.398108483088907567e-16 -6.078679751556406441e-15 -8.974103476143787756e-16 -1.845966228280076728e-15 -8.506865708384049699e-16 0.000000000000000000e+00 0.000000000000000000e+00 0.000000000000000000e+00 0.000000000000000000e+00 6.759317309632049877e-16 -4.742267508843923653e-15 0.000000000000000000e+00 -2.444329559703275297e-16 -5.939014721957306867e-15
7.500000000000000000e+02 0.000000000000000000e+00 0.000000000000000000e+00 0.000000000000000000e+00 0.000000000000000000e+00 0.000000000000000000e+00 5.735032572984647414e-01 2.373205475811473175e-01 -4.676525532709637112e+00 3.849168948127791090e+00 2.372885208564973425e+00 4.513597467937001673e-01 -8.274983867372710522e-01 1.075749698213213090e+00 1.319629932037348574e+00 3.755488970263375359e-01 -4.862018725069698455e+00 1.244695471280121923e+00 4.490119902082381209e-01 1.911773805943201232e+00 -4.365254851556948701e+00 -2.573982556413348277e+00 -3.441970204350306428e-01 3.853638387717526204e+00 1.927479395388409733e+00 -7.967406812814507022e-01 4.376883022386258482e+00 1.340319241982234344e-01 -1.216507838327598234e+00 -4.777047159741159454e+00 2.197909331397649921e-02 -4.486341595087887102e-01 -1.178565615858180760e+00 3.505794809367372700e-02 -7.828850757731991017e-01 -1.787347050635265777e+00 3.930794311105430955e-02 -2.029420133419486058e-02 4.598549616118747241e-01 -3.654229916585968740e-01 -2.847155588246598201e-01 5.215539238795233956e+00 5.250014853742893672e-01 1.375993436445238118e-02 5.798183946874316597e+00 -1.333305760661620404e-03 -6.482701544372220237e-01 -2.493507212134604245e+00 -6.697273690632049359e+00 -8.334245125360366657e+00 -1.372212812480944288e+00 -1.762651809443103801e+01 2.509856634886566074e+00 -1.005920197015722550e+01 -8.539388155228566646e-01 -2.207830012722880042e+00 1.730761913491068560e+00 0.000000000000000000e+00 0.000000000000000000e+00 0.000000000000000000e+00 -8.360912215969963655e-15 -1.836168735576935195e-16 0.000000000000000000e+00 -5.431895470479736883e-15 -1.350258253978294860e-15 0.000000000000000000e+00 1.240278241133441099e-15 -2.866914600584750085e-15 -2.816024767242944036e-15 0.000000000000000000e+00 0.000000000000000000e+00 0.000000000000000000e+00 0.000000000000000000e+00 3.577886254875450034e-15 3.863691498743412421e-15 0.000000000000000000e+00 4.941049946180015714e-16 8.867311150924513532e-16 1.240278241133441099e-15 -2.866914600584750085e-15 -2.816024767242944036e-15 0.000000000000000000e+00 -9.734017983009930656e-16 4.372319269087226551e-15 0.000000000000000000e+00 -4.728569054387550887e-16 7.515312603885184689e-15 0.000000000000000000e+00 2.029669412978305508e-15 2.886041338350711949e-15 1.240278241133441099e-15 -2.866914600584750085e-15 -2.816024767242944036e-15 0.000000000000000000e+00 0.000000000000000000e+00 0.000000000000000000e+00 0.000000000000000000e+00 2.483220800984474746e-15 3.612492631991562161e-15 0.000000000000000000e+00 9.135490289120351869e-16 6.313417128812963594e-15 1.240278241133441099e-15 -2.866914600584750085e-15 -2.816024767242944036e-15 0.000000000000000000e+00 0.000000000000000000e+00 0.000000000000000000e+00 0.000000000000000000e+00 2.316361845700875697e-16 6.962162587750689188e-15 0.000000000000000000e+00 1.866176102414830826e-15 7.960735990798854187e-15 -7.597471929702949156e-01 -1.272663663649144627e+00 -3.179456144360824688e+00 6.263335506454064117e+00 -1.780471094941134202e+00 -7.707049496996314808e+00 1.034080305378318521e+01 -5.153367770367959011e+00 4.345009989377793147e+00 -3.149110652498993801e+00 2.032869431286262518e+00 -2.709749907064391117e+00 0.000000000000000000e+00 0.000000000000000000e+00 0.000000000000000000e+00 -4.435431757980579143e-16 -2.189225472083553627e-16 0.000000000000000000e+00 -1.355082741402641451e-15 -6.605882741216769105e-16 0.000000000000000000e+00 -8.890114805738940934e-16 -1.861775235247744254e-15 -8.614937971010487127e-16 0.000000000000000000e+00 0.000000000000000000e+00 0.000000000000000000e+00 0.000000000000000000e+00 2.229047452621869413e-15 -4.280426955678800387e-15 0.000000000000000000e+00 1.463705874550425633e-15 -5.148355468681434705e-15 -8.890114805738940934e-16 -1.861775235247744254e-15 -8.614937971010487127e-16 0.000000000000000000e+00 -5.195668454491200650e-16 -6.346211571567740299e-15 0.000000000000000000e+00 9.965582554714584648e-16 -5.231060015714690865e-15 0.000000000000000000e+00 1.516509161797220205e-15 -7.864954000798215420e-15 -8.890114805738940934e-16 -1.861775235247744254e-15 -8.614937971010487127e-16 0.000000000000000000e+00 0.000000000000000000e+00 0.000000000000000000e+00 0.000000000000000000e+00 1.286795132804354186e-15 -5.703057746128163032e-15 0.000000000000000000e+00 6.330630120607512296e-16 -6.156661959291559303e-15 -8.890114805738940934e-16 -1.861775235247744254e-15 -8.614937971010487127e-16 0.000000000000000000e+00 0.000000000000000000e+00 0.000000000000000000e+00 0.000000000000000000e+00 6.610988579614007427e-16 -4.784104161056030558e-15 0.000000000000000000e+00 -2.566080510840680374e-16 -5.984663219631073338e-15
